<svg width="48" height="48" viewBox="0 0 48 48" fill="none" xmlns="http://www.w3.org/2000/svg">
<g id="Frame">
<path id="Vector" d="M41.7238 20.8586L43.8051 22.9398C44.6863 23.8211 44.6863 25.2461 43.8051 26.118L25.5895 44.343C24.7082 45.2242 23.2832 45.2242 22.4113 44.343L4.18633 26.118C3.30508 25.2367 3.30508 23.8117 4.18633 22.9398L6.26758 20.8586C7.1582 19.968 8.61133 19.9867 9.4832 20.8961L20.2457 32.193L20.2457 5.24921C20.2457 4.00234 21.2488 2.99921 22.4957 2.99921H25.4957C26.7426 2.99921 27.7457 4.00234 27.7457 5.24921L27.7457 32.193L38.5082 20.8961C39.3801 19.9773 40.8332 19.9586 41.7238 20.8586Z" fill="#A0BBFF"/>
</g>
</svg>
