<svg width="48" height="48" viewBox="0 0 48 48" fill="none" xmlns="http://www.w3.org/2000/svg">
<g id="Frame">
<path id="Vector" d="M41.7238 27.1414L43.8051 25.0602C44.6863 24.1789 44.6863 22.7539 43.8051 21.882L25.5895 3.65703C24.7082 2.77578 23.2832 2.77578 22.4113 3.65703L4.18633 21.882C3.30508 22.7633 3.30508 24.1883 4.18633 25.0602L6.26758 27.1414C7.1582 28.032 8.61133 28.0133 9.4832 27.1039L20.2457 15.807L20.2457 42.7508C20.2457 43.9977 21.2488 45.0008 22.4957 45.0008H25.4957C26.7426 45.0008 27.7457 43.9977 27.7457 42.7508L27.7457 15.807L38.5082 27.1039C39.3801 28.0227 40.8332 28.0414 41.7238 27.1414Z" fill="#A0BBFF"/>
</g>
</svg>
