<svg width="48" height="48" viewBox="0 0 48 48" fill="none" xmlns="http://www.w3.org/2000/svg">
<g id="Frame">
<path id="Vector" d="M20.8586 6.27227L22.9398 4.19102C23.8211 3.30977 25.2461 3.30977 26.118 4.19102L44.343 22.4066C45.2242 23.2879 45.2242 24.7129 44.343 25.5848L26.118 43.8098C25.2367 44.691 23.8117 44.691 22.9398 43.8098L20.8586 41.7285C19.968 40.8379 19.9867 39.3848 20.8961 38.5129L32.193 27.7504H5.24921C4.00234 27.7504 2.99921 26.7473 2.99921 25.5004V22.5004C2.99921 21.2535 4.00234 20.2504 5.24921 20.2504H32.193L20.8961 9.48789C19.9773 8.61602 19.9586 7.16289 20.8586 6.27227Z" fill="#A0BBFF"/>
</g>
</svg>
