<svg width="42" height="42" viewBox="0 0 42 42" fill="none" xmlns="http://www.w3.org/2000/svg">
<path d="M24.1414 38.7277L22.0602 40.809C21.1789 41.6902 19.7539 41.6902 18.882 40.809L0.657031 22.5934C-0.224219 21.7121 -0.224219 20.2871 0.657031 19.4152L18.882 1.19023C19.7633 0.308984 21.1883 0.308984 22.0602 1.19023L24.1414 3.27148C25.032 4.16211 25.0133 5.61523 24.1039 6.48711L12.807 17.2496H39.7508C40.9977 17.2496 42.0008 18.2527 42.0008 19.4996V22.4996C42.0008 23.7465 40.9977 24.7496 39.7508 24.7496H12.807L24.1039 35.5121C25.0227 36.384 25.0414 37.8371 24.1414 38.7277Z" fill="#A0BBFF"/>
</svg>
